<?xml version="1.0" standalone="no"?><!DOCTYPE svg PUBLIC "-//W3C//DTD SVG 1.1//EN" "http://www.w3.org/Graphics/SVG/1.1/DTD/svg11.dtd"><svg class="icon" width="200px" height="200.00px" viewBox="0 0 1024 1024" version="1.1" xmlns="http://www.w3.org/2000/svg"><path d="M0 0h1024v1024H0z" fill="#FFFFFF" /><path d="M120 80c-22.056 0-40 17.944-40 40v224c0 22.056 17.944 40 40 40h224c22.056 0 40-17.944 40-40V120c0-22.056-17.944-40-40-40H120m0-80h224c66.274 0 120 53.726 120 120v224c0 66.274-53.726 120-120 120H120c-66.274 0-120-53.726-120-120V120C0 53.726 53.726 0 120 0z" fill="#707070" /><path d="M680 80c-22.056 0-40 17.944-40 40v224c0 22.056 17.944 40 40 40h224c22.056 0 40-17.944 40-40V120c0-22.056-17.944-40-40-40H680m0-80h224c66.274 0 120 53.726 120 120v224c0 66.274-53.726 120-120 120H680c-66.274 0-120-53.726-120-120V120c0-66.274 53.726-120 120-120z" fill="#707070" /><path d="M120 640c-22.056 0-40 17.944-40 40v224c0 22.056 17.944 40 40 40h224c22.056 0 40-17.944 40-40V680c0-22.056-17.944-40-40-40H120m0-80h224c66.274 0 120 53.726 120 120v224c0 66.274-53.726 120-120 120H120c-66.274 0-120-53.726-120-120V680c0-66.274 53.726-120 120-120z" fill="#707070" /><path d="M680 640c-22.056 0-40 17.944-40 40v224c0 22.056 17.944 40 40 40h224c22.056 0 40-17.944 40-40V680c0-22.056-17.944-40-40-40H680m0-80h224c66.274 0 120 53.726 120 120v224c0 66.274-53.726 120-120 120H680c-66.274 0-120-53.726-120-120V680c0-66.274 53.726-120 120-120z" fill="#707070" /></svg>