<?xml version="1.0" standalone="no"?><!DOCTYPE svg PUBLIC "-//W3C//DTD SVG 1.1//EN" "http://www.w3.org/Graphics/SVG/1.1/DTD/svg11.dtd"><svg class="icon" width="200px" height="200.00px" viewBox="0 0 1024 1024" version="1.1" xmlns="http://www.w3.org/2000/svg"><path fill="#707070" d="M213.504 358.912c-11.392 0-20.821333-8.96-21.290667-20.437333L192 328.490667c0-157.098667 143.530667-284.885333 320-284.885333s320 127.786667 320 284.885333l-0.170667 7.466667c-0.341333 11.733333-10.154667 21.76-21.973333 21.802667-11.733333-0.341333-21.077333-9.002667-20.736-20.778667L789.333333 328.490667c0-133.546667-124.416-242.218667-277.333333-242.218667S234.666667 194.944 234.666667 328.490667l0.170667 8.192C235.349333 348.458667 226.176 358.4 214.4 358.869333 214.144 358.912 213.845333 358.912 213.504 358.912zM597.205333 881.194667c-10.538667 0-19.754667-7.850667-21.12-18.645333-1.493333-11.648 6.741333-22.357333 18.474667-23.893333 78.165333-10.026667 151.594667-73.770667 174.549333-151.509333 3.370667-11.306667 15.232-17.664 26.496-14.421333 11.306667 3.328 17.749333 15.189333 14.421333 26.496-27.946667 94.72-114.346667 169.472-210.048 181.76C599.04 881.152 598.144 881.194667 597.205333 881.194667zM511.957333 983.424c-58.794667 0-106.624-47.829333-106.624-106.666667s47.829333-106.666667 106.624-106.666667c58.837333 0 106.709333 47.829333 106.709333 106.666667S570.794667 983.424 511.957333 983.424zM511.957333 812.757333c-35.285333 0-63.957333 28.714667-63.957333 64s28.672 64 63.957333 64c35.328 0 64.042667-28.714667 64.042667-64S547.285333 812.757333 511.957333 812.757333zM277.632 724.650667 223.744 724.650667c-99.882667 0-181.162667-85.973333-181.162667-191.573333 0-105.6 81.237333-191.530667 181.12-191.573333l53.930667 0c11.776 0 21.333333 9.557333 21.333333 21.333333l0 340.48C298.965333 715.136 289.450667 724.650667 277.632 724.650667zM223.744 384.170667c-76.373333 0-138.496 66.816-138.496 148.906667 0 82.133333 62.122667 148.906667 138.453333 148.906667l32.597333 0 0-297.813333L223.744 384.170667zM799.232 704.512l-53.802667 0c-11.776 0-21.333333-9.557333-21.333333-21.333333L724.096 341.930667c0-11.776 9.557333-21.333333 21.333333-21.333333l53.76 0c99.754667 0 180.906667 86.144 180.906667 192C980.138667 618.410667 898.986667 704.512 799.232 704.512zM766.805333 661.845333l32.469333 0c76.202667 0 138.197333-66.944 138.197333-149.290667s-61.994667-149.290667-138.197333-149.333333l-32.469333 0L766.805333 661.845333z" /></svg>