<?xml version="1.0" standalone="no"?><!DOCTYPE svg PUBLIC "-//W3C//DTD SVG 1.1//EN" "http://www.w3.org/Graphics/SVG/1.1/DTD/svg11.dtd"><svg class="icon" width="200px" height="200.00px" viewBox="0 0 1024 1024" version="1.1" xmlns="http://www.w3.org/2000/svg"><path fill="#d81e06" d="M849.48264 30.257057H174.503034c-92.374689 0-167.530239 75.15555-167.53024 167.529216v417.515258c0 92.386969 75.15555 167.529216 167.53024 167.529216h295.410513c35.506608 68.378207 87.583579 121.568533 155.201471 158.413623 67.054051 36.521725 132.500492 47.145669 160.441811 51.682999 3.396346 0.535188 6.792693 0.81762 10.159364 0.81762 23.516553 0 45.481776-13.133086 56.402478-34.619402 12.440309-24.544973 7.621569-54.345637-11.976752-73.676876-34.703314-34.266363-54.527785-66.05326-68.082471-102.616941h77.424215c92.386969 0 167.544566-75.142247 167.544566-167.529216V197.786273c-0.001023-92.373666-75.15862-167.529216-167.545589-167.529216z m104.266507 585.044474c0 57.360291-46.920542 104.251157-104.266507 104.251157H692.308238c-0.196474 3.226478-1.070376 6.509238-0.379645 9.736739 16.724883 80.017268 40.508518 138.716041 103.77225 201.177503-61.883295-10.032474-217.211656-39.100452-285.152912-210.913219H174.503034c-57.331638 0-104.252181-46.890866-104.252181-104.251157V197.786273c0-57.360291 46.920542-104.278786 104.252181-104.278786h674.979606c57.345965 0 104.266507 46.919519 104.266507 104.278786v417.515258zM833.378902 560.209905H676.993468c-11.652364 0-21.079042 9.439981-21.079042 21.078019 0 11.653388 9.426678 21.092345 21.079042 21.092345H833.378902c11.652364 0 21.105648-9.439981 21.105649-21.092345 0-11.639061-9.453284-21.078019-21.105649-21.078019zM572.742311 560.209905H188.536627c-11.638038 0-21.079042 9.439981-21.079042 21.078019 0 11.653388 9.441004 21.092345 21.079042 21.092345h384.205684c11.638038 0 21.092345-9.439981 21.092345-21.092345 0-11.639061-9.454307-21.078019-21.092345-21.078019zM833.378902 442.430667H398.984243c-11.638038 0-21.092345 9.441004-21.092345 21.092345s9.454307 21.092345 21.092345 21.092346H833.378902c11.652364 0 21.105648-9.441004 21.105649-21.092346s-9.453284-21.092345-21.105649-21.092345zM188.536627 484.616381h109.085246c11.638038 0 21.106671-9.441004 21.106672-21.092345s-9.468633-21.092345-21.106672-21.092346H188.536627c-11.638038 0-21.079042 9.441004-21.079042 21.092346s9.441004 21.092345 21.079042 21.092345zM833.378902 324.666779H590.129272c-11.653388 0-21.092345 9.454307-21.092345 21.106671 0 11.638038 9.439981 21.092345 21.092345 21.092345h243.24963c11.652364 0 21.105648-9.454307 21.105649-21.092345 0-11.652364-9.453284-21.106671-21.105649-21.106671zM188.536627 366.865795h262.580869c11.639061 0 21.079042-9.454307 21.079042-21.092345 0-11.652364-9.439981-21.106671-21.079042-21.106671H188.536627c-11.638038 0-21.079042 9.454307-21.079042 21.106671 0 11.638038 9.441004 21.092345 21.079042 21.092345zM833.378902 206.888564H676.993468c-11.652364 0-21.079042 9.441004-21.079042 21.092345s9.426678 21.106671 21.079042 21.106671H833.378902c11.652364 0 21.105648-9.454307 21.105649-21.106671s-9.453284-21.092345-21.105649-21.092345zM188.536627 249.088604h366.8177c11.654411 0 21.107695-9.454307 21.107695-21.106672s-9.453284-21.092345-21.107695-21.092345H188.536627c-11.638038 0-21.079042 9.441004-21.079042 21.092345s9.441004 21.106671 21.079042 21.106672z" /></svg>