<?xml version="1.0" standalone="no"?><!DOCTYPE svg PUBLIC "-//W3C//DTD SVG 1.1//EN" "http://www.w3.org/Graphics/SVG/1.1/DTD/svg11.dtd"><svg class="icon" width="200px" height="200.00px" viewBox="0 0 1024 1024" version="1.1" xmlns="http://www.w3.org/2000/svg"><path fill="#d81e06" d="M353.7408 515.3792a281.6 281.6 0 1 1 367.7184 0C863.744 576.1536 972.8 697.5488 972.8 808.0896c0 133.5296-131.9424 167.936-435.2 167.936S102.4 941.568 102.4 808.0896c0-110.5408 109.056-231.936 251.3408-292.7104z m-18.432 120.32A306.0736 306.0736 0 0 0 537.6 711.68a306.1248 306.1248 0 0 0 206.8992-80.128 25.6 25.6 0 0 0-34.4576-37.888A254.976 254.976 0 0 1 537.6 660.48a254.8736 254.8736 0 0 1-168.5504-63.3344 25.6 25.6 0 1 0-33.792 38.5024z" /></svg>